<?xml version="1.0" encoding="UTF-8" standalone="no"?>
<!-- Created with Inkscape (http://www.inkscape.org/) -->

<svg
   width="210mm"
   height="297mm"
   viewBox="0 0 210 297"
   version="1.1"
   id="svg1"
   inkscape:export-filename="closureOp.svg"
   inkscape:export-xdpi="96"
   inkscape:export-ydpi="96"
   sodipodi:docname="closureOp.svg"
   inkscape:version="1.3 (0e150ed6c4, 2023-07-21)"
   xmlns:inkscape="http://www.inkscape.org/namespaces/inkscape"
   xmlns:sodipodi="http://sodipodi.sourceforge.net/DTD/sodipodi-0.dtd"
   xmlns="http://www.w3.org/2000/svg"
   xmlns:svg="http://www.w3.org/2000/svg">
  <sodipodi:namedview
     id="namedview1"
     pagecolor="#ffffff"
     bordercolor="#000000"
     borderopacity="0.25"
     inkscape:showpageshadow="2"
     inkscape:pageopacity="0.0"
     inkscape:pagecheckerboard="0"
     inkscape:deskcolor="#d1d1d1"
     inkscape:document-units="mm"
     inkscape:zoom="1.0520973"
     inkscape:cx="274.68941"
     inkscape:cy="495.67657"
     inkscape:window-width="1920"
     inkscape:window-height="1017"
     inkscape:window-x="-8"
     inkscape:window-y="-8"
     inkscape:window-maximized="1"
     inkscape:current-layer="layer1"
     showguides="true">
    <sodipodi:guide
       position="96.820495,186.34801"
       orientation="0,-1"
       id="guide1"
       inkscape:locked="false" />
  </sodipodi:namedview>
  <defs
     id="defs1" />
  <g
     inkscape:label="Layer 1"
     inkscape:groupmode="layer"
     id="layer1">
    <path
       style="fill:#780000;stroke:#000000;stroke-width:1.49;stroke-dasharray:2.98, 1.49, 0.745, 1.49;stroke-dashoffset:0"
       d="m 11.56816,145.85944 c 0,0 -2.2633401,-8.55038 7.04149,-20.37003 9.30482,-11.81964 19.61558,-19.86706 25.14818,-8.55038 5.5326,11.31668 10.05927,56.08044 20.37002,39.23116 10.31076,-16.84928 35.9619,35.20745 18.60965,35.20745 -17.35224,0 -23.3878,-2.7663 -29.67485,-17.60373 -6.28704,-14.83742 -20.87298,-2.51481 -28.41744,6.28705 -7.54445,8.80186 -13.07705,-34.20152 -13.07705,-34.20152 z"
       id="path1" />
    <path
       style="fill:#780000;stroke:#000000;stroke-width:1.49;stroke-dasharray:none;stroke-dashoffset:0"
       d="m 121.46571,145.60795 c 0,0 -2.26334,-8.55038 7.04149,-20.37003 9.30483,-11.81964 19.61558,-19.86706 25.14818,-8.55038 5.5326,11.31668 10.05927,56.08044 20.37003,39.23116 10.31075,-16.84928 35.96189,35.20745 18.60965,35.20745 -17.35225,0 -23.38781,-2.7663 -29.67486,-17.60373 -6.28704,-14.83742 -20.87298,-2.51481 -28.41744,6.28705 -7.54445,8.80186 -13.07705,-34.20152 -13.07705,-34.20152 z"
       id="path2" />
    <path
       style="fill:#2a2020;fill-opacity:1;stroke:#000000;stroke-width:0.89;stroke-dasharray:none;stroke-dashoffset:0"
       d="m 85.126586,147.74555 0.125743,2.26334 24.645211,0.12574 v 2.51482 l 7.16724,-4.14945 -6.91576,-4.9039 0.25149,3.14353 z"
       id="path3" />
  </g>
</svg>
