<?xml version="1.0" encoding="UTF-8" standalone="no"?>
<!-- Created with Inkscape (http://www.inkscape.org/) -->

<svg
   width="210mm"
   height="297mm"
   viewBox="0 0 210 297"
   version="1.1"
   id="svg1"
   inkscape:export-filename="closureOp.svg"
   inkscape:export-xdpi="96"
   inkscape:export-ydpi="96"
   sodipodi:docname="openOp.svg"
   inkscape:version="1.3 (0e150ed6c4, 2023-07-21)"
   xmlns:inkscape="http://www.inkscape.org/namespaces/inkscape"
   xmlns:sodipodi="http://sodipodi.sourceforge.net/DTD/sodipodi-0.dtd"
   xmlns="http://www.w3.org/2000/svg"
   xmlns:svg="http://www.w3.org/2000/svg">
  <sodipodi:namedview
     id="namedview1"
     pagecolor="#ffffff"
     bordercolor="#000000"
     borderopacity="0.25"
     inkscape:showpageshadow="2"
     inkscape:pageopacity="0.0"
     inkscape:pagecheckerboard="0"
     inkscape:deskcolor="#d1d1d1"
     inkscape:document-units="mm"
     inkscape:zoom="1.0520973"
     inkscape:cx="274.68941"
     inkscape:cy="495.67657"
     inkscape:window-width="1920"
     inkscape:window-height="1017"
     inkscape:window-x="-8"
     inkscape:window-y="-8"
     inkscape:window-maximized="1"
     inkscape:current-layer="layer1" />
  <defs
     id="defs1" />
  <g
     inkscape:label="Layer 1"
     inkscape:groupmode="layer"
     id="layer1">
    <path
       style="fill:#780000;stroke:#000000;stroke-width:1.49;stroke-dasharray:2.98, 1.49, 0.745, 1.49;stroke-dashoffset:0"
       d="m 128.25572,141.58425 c 0,0 -2.26334,-8.55038 7.04149,-20.37003 9.30482,-11.81964 19.61558,-19.86706 25.14818,-8.55038 5.5326,11.31668 10.05927,56.08044 20.37002,39.23116 10.31076,-16.84928 35.9619,35.20745 18.60965,35.20745 -17.35224,0 -23.3878,-2.7663 -29.67485,-17.60373 -6.28704,-14.83742 -20.87298,-2.51481 -28.41744,6.28705 -7.54445,8.80186 -13.07705,-34.20152 -13.07705,-34.20152 z"
       id="path1" />
    <path
       style="fill:#780000;stroke:#000000;stroke-width:1.49;stroke-dasharray:none;stroke-dashoffset:0"
       d="m 9.8077883,147.36833 c 0,0 -2.26334,-8.55038 7.0414897,-20.37003 9.304831,-11.81964 19.615581,-19.86706 25.148181,-8.55038 5.5326,11.31668 10.05927,56.08044 20.37003,39.23116 10.31075,-16.84928 35.96189,35.20745 18.60965,35.20745 -17.35225,0 -23.38781,-2.7663 -29.67486,-17.60373 -6.28704,-14.83742 -20.87298,-2.51481 -28.41744,6.28705 -7.544451,8.80186 -13.0770507,-34.20152 -13.0770507,-34.20152 z"
       id="path2" />
    <path
       style="fill:#2a2020;fill-opacity:1;stroke:#000000;stroke-width:0.89;stroke-dasharray:none;stroke-dashoffset:0"
       d="m 85.126586,147.74555 0.125743,2.26334 24.645211,0.12574 v 2.51482 l 7.16724,-4.14945 -6.91576,-4.9039 0.25149,3.14353 z"
       id="path3" />
    <path
       style="font-variation-settings:normal;opacity:1;fill:#6c0303;fill-opacity:1;fill-rule:evenodd;stroke-width:0;stroke-linecap:butt;stroke-linejoin:miter;stroke-miterlimit:4;stroke-dasharray:none;stroke-dashoffset:0;stroke-opacity:1;stop-color:#000000;stop-opacity:1"
       id="path4"
       sodipodi:type="arc"
       sodipodi:cx="54.414295"
       sodipodi:cy="127.76689"
       sodipodi:rx="1.2447715"
       sodipodi:ry="1.3336836"
       sodipodi:start="0.018297461"
       sodipodi:end="0.018025452"
       sodipodi:open="true"
       sodipodi:arc-type="arc"
       d="m 55.658858,127.79129 a 1.2447715,1.3336836 0 0 1 -1.267253,1.30906 1.2447715,1.3336836 0 0 1 -1.221876,-1.35768 1.2447715,1.3336836 0 0 1 1.267087,-1.30924 1.2447715,1.3336836 0 0 1 1.222048,1.3575" />
    <path
       style="font-variation-settings:normal;opacity:1;fill:#6d0000;fill-opacity:1;fill-rule:evenodd;stroke-width:0;stroke-linecap:butt;stroke-linejoin:miter;stroke-miterlimit:4;stroke-dasharray:none;stroke-dashoffset:0;stroke-opacity:1;stop-color:#000000;stop-opacity:1"
       id="path5"
       sodipodi:type="arc"
       sodipodi:cx="57.170574"
       sodipodi:cy="147.77214"
       sodipodi:rx="1.3336836"
       sodipodi:ry="1.0669469"
       sodipodi:start="0.018297461"
       sodipodi:end="0.018025452"
       sodipodi:open="true"
       sodipodi:arc-type="arc"
       d="m 58.504035,147.79166 a 1.3336836,1.0669469 0 0 1 -1.357772,1.04725 1.3336836,1.0669469 0 0 1 -1.309152,-1.08615 1.3336836,1.0669469 0 0 1 1.357593,-1.04739 1.3336836,1.0669469 0 0 1 1.309337,1.086" />
    <path
       style="font-variation-settings:normal;opacity:1;fill:#740000;fill-opacity:1;fill-rule:evenodd;stroke-width:0;stroke-linecap:butt;stroke-linejoin:miter;stroke-miterlimit:4;stroke-dasharray:none;stroke-dashoffset:0;stroke-opacity:1;stop-color:#000000;stop-opacity:1"
       id="path6"
       sodipodi:type="arc"
       sodipodi:cx="39.388123"
       sodipodi:cy="177.73557"
       sodipodi:rx="1.3336836"
       sodipodi:ry="1.1558591"
       sodipodi:start="0.018297461"
       sodipodi:end="0.018025452"
       sodipodi:open="true"
       sodipodi:arc-type="arc"
       d="m 40.721583,177.75671 a 1.3336836,1.1558591 0 0 1 -1.357771,1.13452 1.3336836,1.1558591 0 0 1 -1.309153,-1.17666 1.3336836,1.1558591 0 0 1 1.357593,-1.13467 1.3336836,1.1558591 0 0 1 1.309338,1.1765" />
    <path
       style="font-variation-settings:normal;opacity:1;fill:#6c0202;fill-opacity:1;fill-rule:evenodd;stroke-width:0;stroke-linecap:butt;stroke-linejoin:miter;stroke-miterlimit:4;stroke-dasharray:none;stroke-dashoffset:0;stroke-opacity:1;stop-color:#000000;stop-opacity:1"
       id="path7"
       sodipodi:type="arc"
       sodipodi:cx="52.991699"
       sodipodi:cy="191.16133"
       sodipodi:rx="1.6004204"
       sodipodi:ry="1.2447715"
       sodipodi:start="0.018297461"
       sodipodi:end="0.018025452"
       sodipodi:open="true"
       sodipodi:arc-type="arc"
       d="m 54.591852,191.18411 a 1.6004204,1.2447715 0 0 1 -1.629326,1.22179 1.6004204,1.2447715 0 0 1 -1.570983,-1.26717 1.6004204,1.2447715 0 0 1 1.629112,-1.22197 1.6004204,1.2447715 0 0 1 1.571205,1.26701" />
    <path
       style="font-variation-settings:normal;opacity:1;fill:#750000;fill-opacity:1;fill-rule:evenodd;stroke-width:0;stroke-linecap:butt;stroke-linejoin:miter;stroke-miterlimit:4;stroke-dasharray:none;stroke-dashoffset:0;stroke-opacity:1;stop-color:#000000;stop-opacity:1"
       id="path8"
       sodipodi:type="arc"
       sodipodi:cx="17.960274"
       sodipodi:cy="190.45001"
       sodipodi:rx="1.6004204"
       sodipodi:ry="1.4225959"
       sodipodi:start="0.018297461"
       sodipodi:end="0.018025452"
       sodipodi:open="true"
       sodipodi:arc-type="arc"
       d="m 19.560426,190.47604 a 1.6004204,1.4225959 0 0 1 -1.629325,1.39633 1.6004204,1.4225959 0 0 1 -1.570984,-1.44819 1.6004204,1.4225959 0 0 1 1.629112,-1.39653 1.6004204,1.4225959 0 0 1 1.571205,1.448" />
    <path
       style="font-variation-settings:normal;opacity:1;fill:#740000;fill-opacity:1;fill-rule:evenodd;stroke-width:0;stroke-linecap:butt;stroke-linejoin:miter;stroke-miterlimit:4;stroke-dasharray:none;stroke-dashoffset:0;stroke-opacity:1;stop-color:#000000;stop-opacity:1"
       id="path9"
       sodipodi:type="arc"
       sodipodi:cx="8.0021019"
       sodipodi:cy="123.94367"
       sodipodi:rx="1.2447715"
       sodipodi:ry="1.4225959"
       sodipodi:start="0.018297461"
       sodipodi:end="0.018025452"
       sodipodi:open="true"
       sodipodi:arc-type="arc"
       d="m 9.246665,123.9697 a 1.2447715,1.4225959 0 0 1 -1.2672534,1.39633 1.2447715,1.4225959 0 0 1 -1.2218759,-1.44819 1.2447715,1.4225959 0 0 1 1.2670872,-1.39653 1.2447715,1.4225959 0 0 1 1.2220483,1.448" />
  </g>
</svg>
